# xmcd CD database file
#
# Track frame offsets:
#	150
#	43187
#	99592
#	136454
#	178719
#	228042
#	262942
#	302349
#
# Disc length: 4792 seconds
#
# Revision: 0
# Processed by: cddbd v1.5.2PL0 Copyright (c) Steve Scherf et al.
# Submitted via: CDex 1.70beta2
#
DISCID=5e12b608
DTITLE=Laco Deczi - Celula New York Live 2010
DYEAR=2010
DGENRE=Jazz
TTITLE0=Tumba
TTITLE1=Filter
TTITLE2=Cabo
TTITLE3=Plostica
TTITLE4=Mozambique
TTITLE5=Forest
TTITLE6=Bolcek
TTITLE7=Banany
EXTD=YEAR: 2010
EXTT0=
EXTT1=
EXTT2=
EXTT3=
EXTT4=
EXTT5=
EXTT6=
EXTT7=
PLAYORDER=
